<svg xmlns="http://www.w3.org/2000/svg" width="48" height="48" fill="none" viewBox="0 0 48 48"><g clip-path="url(#a)"><g clip-path="url(#b)"><path fill="#027bfe" d="M24 0c13.2 0 24 10.8 24 24S37.2 48 24 48 0 37.2 0 24 10.8 0 24 0"/><path fill="#fff" d="M11.651 3.442C26.565 4.615 36.9 13.142 36.9 24c0 10.857-10.334 19.382-25.248 20.555A24.23 24.23 0 0 1 1.553 32.464c2.068.149 4.257.237 6.545.237 15.3 0 25.801-3.301 25.801-8.701s-10.801-8.701-25.801-8.701c-2.288 0-4.477.085-6.545.234A24.23 24.23 0 0 1 11.65 3.443"/></g></g><defs><clipPath id="a"><path fill="#fff" d="M0 0h48v48H0z"/></clipPath><clipPath id="b"><path fill="#fff" d="M0 0h48v48H0z"/></clipPath></defs></svg>