<?xml version="1.0" encoding="UTF-8" standalone="no"?>
<svg
   xmlns:svg="http://www.w3.org/2000/svg"
   xmlns="http://www.w3.org/2000/svg"
   version="1.1"
   width="122"
   height="50"
   id="svg2">
  <g
     style="font-family:ArialMT;fill:#1d6434"
     aria-label="UNIX"
     id="g12">
    <path
       d="m 24.34375,0.20898437 h 4.736328 V 20.887695 q 0,5.395508 -1.220703,8.569336 -1.220703,3.173828 -4.418945,5.175782 -3.173828,1.977539 -8.34961,1.977539 -5.029297,0 -8.2275387,-1.733399 Q 3.6650391,33.143555 2.2978516,29.87207 0.93066406,26.576172 0.93066406,20.887695 V 0.20898437 H 5.6669922 V 20.863281 q 0,4.663086 0.8544922,6.884766 0.8789062,2.197266 2.9785156,3.393555 2.124023,1.196289 5.175781,1.196289 5.22461,0 7.446289,-2.368164 2.22168,-2.368164 2.22168,-9.106446 z"
       id="path4" />
    <path
       d="M 36.916992,36 V 0.20898437 h 4.858399 L 60.574219,28.30957 V 0.20898437 h 4.541015 V 36 H 60.256836 L 41.458008,7.875 V 36 Z"
       id="path6" />
    <path
       d="M 73.879883,36 V 0.20898437 h 4.736328 V 36 Z"
       id="path8" />
    <path
       d="M 83.328125,36 97.170898,17.347656 84.963867,0.20898437 h 5.639649 l 6.49414,9.17968753 q 2.026367,2.8564451 2.88086,4.3945311 1.196284,-1.953125 2.832034,-4.0771483 l 7.20215,-9.49707033 h 5.15136 L 102.59082,17.079102 116.14062,36 h -5.85937 l -9.00879,-12.768555 q -0.75684,-1.098632 -1.562499,-2.392578 -1.196289,1.953125 -1.708984,2.685547 L 89.016602,36 Z"
       id="path10" />
  </g>
  <path
     d="m 117.9564,3.6287008 q 0.90175,0 1.7608,0.4651172 0.85904,0.4603711 1.33839,1.3241602 0.47936,0.859043 0.47936,1.7940235 0,0.9254883 -0.47461,1.7797852 -0.46986,0.8542969 -1.32416,1.3289061 -0.84955,0.469863 -1.77978,0.469863 -0.93024,0 -1.78454,-0.469863 -0.84955,-0.4746092 -1.32416,-1.3289061 -0.47461,-0.8542969 -0.47461,-1.7797852 0,-0.9349805 0.47936,-1.7940235 0.4841,-0.8637891 1.34314,-1.3241602 0.85905,-0.4651172 1.76081,-0.4651172 z m 0,0.5932617 q -0.75463,0 -1.47129,0.3891797 -0.71192,0.3844336 -1.11534,1.1058399 -0.40341,0.7166602 -0.40341,1.4950196 0,0.7736133 0.39392,1.4855274 0.39867,0.7071679 1.11059,1.1058398 0.71191,0.3939261 1.48553,0.3939261 0.77361,0 1.48552,-0.3939261 0.71192,-0.3986719 1.10584,-1.1058398 0.39393,-0.7119141 0.39393,-1.4855274 0,-0.7783594 -0.40342,-1.4950196 -0.39867,-0.7214063 -1.11533,-1.1058399 -0.71666,-0.3891797 -1.46654,-0.3891797 z m -1.57096,4.9691603 V 5.3372946 h 1.32416 q 0.67869,0 0.98244,0.1091601 0.30375,0.1044141 0.4841,0.3701954 0.18035,0.2657812 0.18035,0.5647851 0,0.4224024 -0.30375,0.7356446 -0.299,0.3132422 -0.79734,0.3512109 0.20408,0.08543 0.32748,0.2040821 0.23256,0.2278125 0.56953,0.7641211 l 0.46986,0.7546289 h -0.75937 l -0.34172,-0.6075 q -0.40342,-0.7166602 -0.65021,-0.8970117 -0.17086,-0.1328907 -0.49834,-0.1328907 h -0.36545 v 1.6374024 z m 0.62174,-2.1689649 h 0.75463 q 0.54105,0 0.73564,-0.1613672 0.19934,-0.1613672 0.19934,-0.4271484 0,-0.1708594 -0.0949,-0.30375 -0.0949,-0.1376368 -0.26578,-0.2040821 -0.16611,-0.066445 -0.62174,-0.066445 h -0.70716 z"
     style="fill:#1d6434"
     aria-label="®"
     id="path14" />
  <g
     style="font-family:Myriad;fill:#110f0d"
     aria-label="An Open Group Standard"
     id="g54">
    <path
       d="m 23.18341,45.341208 h -2.32308 l -0.6804,2.06064 h -0.8748 l 2.22588,-6.55128 h 1.0206 l 2.2356,6.55128 h -0.90396 z m -2.14812,-0.66096 h 1.97316 l -0.65124,-1.88568 q -0.12636,-0.3888 -0.33048,-1.19556 h -0.02916 q -0.1458,0.64152 -0.32076,1.18584 z"
       id="path16" />
    <path
       d="m 25.691163,47.401848 v -3.43116 q 0,-0.75816 -0.03888,-1.27332 h 0.75816 l 0.0486,0.76788 h 0.01944 q 0.1944,-0.36936 0.60264,-0.62208 0.40824,-0.25272 0.95256,-0.25272 0.27216,0 0.5346,0.0972 0.27216,0.08748 0.5346,0.30132 0.26244,0.20412 0.42768,0.62208 0.16524,0.40824 0.16524,0.98172 v 2.80908 h -0.85536 v -2.71188 q 0,-0.62208 -0.26244,-1.01088 -0.26244,-0.3888 -0.8262,-0.3888 -0.39852,0 -0.70956,0.25272 -0.31104,0.25272 -0.4374,0.62208 -0.05832,0.16524 -0.05832,0.39852 v 2.83824 z"
       id="path18" />
    <path
       d="m 35.741627,47.508768 h -0.0097 q -1.3122,0 -2.12868,-0.91368 -0.81648,-0.9234 -0.81648,-2.41056 0,-1.54548 0.84564,-2.48832 0.85536,-0.95256 2.187,-0.95256 1.34136,0 2.14812,0.9234 0.80676,0.9234 0.80676,2.39112 0,1.62324 -0.86508,2.53692 -0.86508,0.91368 -2.16756,0.91368 z m 0.01944,-0.69012 h 0.0097 q 0.972,0 1.53576,-0.7776 0.56376,-0.7776 0.56376,-1.944 0,-1.0692 -0.55404,-1.86624 -0.54432,-0.79704 -1.53576,-0.79704 -1.00116,0 -1.5552,0.79704 -0.55404,0.79704 -0.55404,1.93428 0,1.08864 0.56376,1.87596 0.57348,0.7776 1.52604,0.7776 z"
       id="path20" />
    <path
       d="m 39.843458,49.326408 v -5.09328 q 0,-0.94284 -0.03888,-1.53576 h 0.76788 l 0.0486,0.80676 h 0.01944 q 0.5346,-0.91368 1.66212,-0.91368 0.86508,0 1.42884,0.67068 0.57348,0.66096 0.57348,1.72044 0,1.20528 -0.6318,1.86624 -0.62208,0.66096 -1.5066,0.66096 -1.00116,0 -1.44828,-0.73872 h -0.01944 v 2.55636 z m 0.85536,-4.65588 v 0.81648 q 0,0.20412 0.03888,0.34992 0.10692,0.44712 0.45684,0.729 0.35964,0.27216 0.81648,0.27216 0.67068,0 1.04976,-0.49572 0.37908,-0.49572 0.37908,-1.32192 0,-0.73872 -0.36936,-1.24416 -0.36936,-0.50544 -1.0206,-0.50544 -0.44712,0 -0.81648,0.2916 -0.35964,0.28188 -0.486,0.75816 -0.0486,0.2916 -0.0486,0.34992 z"
       id="path22" />
    <path
       d="m 49.164916,45.205128 -3.29508,-0.0097 q 0.0097,0.81648 0.45684,1.22472 0.45684,0.40824 1.14696,0.40824 0.729,0 1.30248,-0.23328 l 0.15552,0.60264 q -0.67068,0.30132 -1.57464,0.30132 -1.0692,0 -1.69128,-0.65124 -0.62208,-0.65124 -0.62208,-1.72044 0,-1.09836 0.60264,-1.81764 0.61236,-0.729 1.61352,-0.729 0.54432,0 0.94284,0.22356 0.39852,0.21384 0.60264,0.57348 0.20412,0.34992 0.2916,0.70956 0.0972,0.34992 0.0972,0.70956 0,0.26244 -0.02916,0.40824 z m -3.28536,-0.62208 h 2.48832 q 0.0097,-0.31104 -0.07776,-0.60264 -0.08748,-0.2916 -0.37908,-0.5346 -0.28188,-0.25272 -0.71928,-0.25272 -0.59292,0 -0.9234,0.42768 -0.33048,0.42768 -0.3888,0.96228 z"
       id="path24" />
    <path
       d="m 50.253551,47.401848 v -3.43116 q 0,-0.75816 -0.03888,-1.27332 h 0.75816 l 0.0486,0.76788 h 0.01944 q 0.1944,-0.36936 0.60264,-0.62208 0.40824,-0.25272 0.95256,-0.25272 0.27216,0 0.5346,0.0972 0.27216,0.08748 0.5346,0.30132 0.26244,0.20412 0.42768,0.62208 0.16524,0.40824 0.16524,0.98172 v 2.80908 h -0.85536 v -2.71188 q 0,-0.62208 -0.26244,-1.01088 -0.26244,-0.3888 -0.8262,-0.3888 -0.39852,0 -0.70956,0.25272 -0.31104,0.25272 -0.4374,0.62208 -0.05832,0.16524 -0.05832,0.39852 v 2.83824 z"
       id="path26" />
    <path
       d="m 62.734014,43.960968 v 3.14928 q -0.93312,0.35964 -2.02176,0.35964 -1.54548,0 -2.44944,-0.86508 -0.91368,-0.88452 -0.91368,-2.43972 0,-1.48716 0.96228,-2.43 0.96228,-0.95256 2.58552,-0.95256 1.0206,0 1.64268,0.30132 l -0.21384,0.69012 q -0.59292,-0.28188 -1.44828,-0.28188 -1.20528,0 -1.92456,0.70956 -0.70956,0.69984 -0.70956,1.92456 0,1.23444 0.6804,1.944 0.69012,0.69984 1.8468,0.69984 0.7776,0 1.12752,-0.17496 v -1.95372 h -1.32192 v -0.6804 z"
       id="path28" />
    <path
       d="m 64.007324,47.401848 0.0097,-3.23676 q 0,-0.88452 -0.03888,-1.46772 h 0.74844 l 0.03888,0.9234 h 0.02916 q 0.15552,-0.46656 0.51516,-0.74844 0.35964,-0.28188 0.79704,-0.28188 0.11664,0 0.23328,0.02916 v 0.79704 q -0.1944,-0.01944 -0.30132,-0.01944 -0.44712,0 -0.75816,0.30132 -0.30132,0.30132 -0.3888,0.78732 -0.02916,0.1944 -0.02916,0.40824 v 2.50776 z"
       id="path30" />
    <path
       d="m 69.051997,47.508768 h -0.0097 q -0.972,0 -1.61352,-0.66096 -0.64152,-0.67068 -0.64152,-1.75932 0,-1.14696 0.66096,-1.81764 0.67068,-0.6804 1.67184,-0.6804 1.01088,0 1.63296,0.67068 0.6318,0.67068 0.6318,1.73988 0,1.22472 -0.69984,1.86624 -0.69984,0.64152 -1.63296,0.64152 z m 0.0097,-0.64152 h 0.0097 q 0.61236,0 1.0206,-0.51516 0.40824,-0.52488 0.40824,-1.32192 0,-0.69012 -0.35964,-1.24416 -0.34992,-0.55404 -1.04976,-0.55404 -0.69984,0 -1.0692,0.54432 -0.36936,0.54432 -0.36936,1.28304 0,0.7776 0.39852,1.29276 0.39852,0.51516 1.01088,0.51516 z"
       id="path32" />
    <path
       d="m 76.400314,42.697368 v 3.42144 q 0,0.78732 0.03888,1.28304 h -0.75816 l -0.0486,-0.76788 h -0.01944 q -0.1944,0.34992 -0.59292,0.61236 -0.39852,0.26244 -0.96228,0.26244 -0.30132,0 -0.57348,-0.0972 -0.26244,-0.0972 -0.51516,-0.31104 -0.243,-0.22356 -0.3888,-0.64152 -0.1458,-0.42768 -0.1458,-1.01088 v -2.75076 h 0.85536 v 2.59524 q 0,1.5066 1.04976,1.5066 0.39852,0 0.69984,-0.23328 0.30132,-0.23328 0.42768,-0.55404 0.07776,-0.18468 0.07776,-0.4374 v -2.87712 z"
       id="path34" />
    <path
       d="m 77.819419,49.326408 v -5.09328 q 0,-0.94284 -0.03888,-1.53576 h 0.767881 l 0.0486,0.80676 h 0.01944 q 0.5346,-0.91368 1.66212,-0.91368 0.86508,0 1.42884,0.67068 0.57348,0.66096 0.57348,1.72044 0,1.20528 -0.6318,1.86624 -0.62208,0.66096 -1.5066,0.66096 -1.00116,0 -1.44828,-0.73872 h -0.01944 v 2.55636 z m 0.855361,-4.65588 v 0.81648 q 0,0.20412 0.03888,0.34992 0.10692,0.44712 0.45684,0.729 0.35964,0.27216 0.81648,0.27216 0.67068,0 1.04976,-0.49572 0.37908,-0.49572 0.37908,-1.32192 0,-0.73872 -0.36936,-1.24416 -0.36936,-0.50544 -1.0206,-0.50544 -0.44712,0 -0.81648,0.2916 -0.35964,0.28188 -0.486,0.75816 -0.0486,0.2916 -0.0486,0.34992 z"
       id="path36" />
    <path
       d="m 85.1094,47.081088 0.22356,-0.70956 q 0.67068,0.42768 1.5066,0.42768 0.641521,0 1.001161,-0.30132 0.36936,-0.31104 0.36936,-0.81648 0,-0.44712 -0.2916,-0.73872 -0.28188,-0.30132 -0.942841,-0.55404 -1.73016,-0.6318 -1.73016,-1.86624 0,-0.7776 0.5832,-1.27332 0.59292,-0.50544 1.535761,-0.50544 0.89424,0 1.43856,0.32076 l -0.23328,0.69012 q -0.50544,-0.31104 -1.23444,-0.31104 -0.612361,0 -0.923401,0.30132 -0.31104,0.2916 -0.31104,0.6804 0,0.44712 0.2916,0.71928 0.30132,0.27216 1.010881,0.54432 0.86508,0.3402 1.2636,0.78732 0.39852,0.4374 0.39852,1.13724 0,0.80676 -0.59292,1.35108 -0.5832,0.54432 -1.691281,0.54432 -0.46656,0 -0.93312,-0.11664 -0.46656,-0.12636 -0.73872,-0.31104 z"
       id="path38" />
    <path
       d="m 90.358172,41.832288 0.83592,-0.26244 v 1.12752 h 1.22472 v 0.65124 h -1.22472 v 2.53692 q 0,0.91368 0.64152,0.91368 0.30132,0 0.49572,-0.05832 l 0.03888,0.65124 q -0.33048,0.11664 -0.75816,0.11664 -0.59292,0 -0.9234,-0.35964 -0.33048,-0.36936 -0.33048,-1.23444 v -2.56608 h -0.729 v -0.65124 h 0.729 z"
       id="path40" />
    <path
       d="m 96.6956,44.515008 v 1.75932 q 0,0.6804 0.06804,1.12752 H 95.99576 L 95.918,46.808928 h -0.02916 q -0.20412,0.30132 -0.5832,0.50544 -0.37908,0.1944 -0.85536,0.1944 -0.6804,0 -1.05948,-0.39852 -0.37908,-0.39852 -0.37908,-0.95256 0,-0.85536 0.729,-1.30248 0.73872,-0.45684 2.09952,-0.44712 v -0.0972 q 0,-0.18468 -0.03888,-0.3402 -0.02916,-0.16524 -0.13608,-0.34992 -0.0972,-0.18468 -0.33048,-0.2916 -0.22356,-0.10692 -0.56376,-0.10692 -0.71928,0 -1.23444,0.34992 l -0.1944,-0.57348 q 0.65124,-0.40824 1.5552,-0.40824 1.7982,0 1.7982,1.92456 z m -0.83592,1.30248 v -0.81648 q -1.9926,-0.03888 -1.9926,1.05948 0,0.39852 0.22356,0.61236 0.23328,0.20412 0.57348,0.20412 0.4374,0 0.73872,-0.22356 0.30132,-0.23328 0.41796,-0.56376 0.03888,-0.11664 0.03888,-0.27216 z"
       id="path42" />
    <path
       d="m 98.066108,47.401848 v -3.43116 q 0,-0.75816 -0.03888,-1.27332 h 0.75816 l 0.0486,0.76788 h 0.01944 q 0.1944,-0.36936 0.60264,-0.62208 0.40824,-0.25272 0.952562,-0.25272 0.27216,0 0.5346,0.0972 0.27216,0.08748 0.5346,0.30132 0.26244,0.20412 0.42768,0.62208 0.16524,0.40824 0.16524,0.98172 v 2.80908 h -0.85536 v -2.71188 q 0,-0.62208 -0.26244,-1.01088 -0.26244,-0.3888 -0.8262,-0.3888 -0.398522,0 -0.709562,0.25272 -0.31104,0.25272 -0.4374,0.62208 -0.05832,0.16524 -0.05832,0.39852 v 2.83824 z"
       id="path44" />
    <path
       d="m 106.66829,40.500648 h 0.85536 v 5.6862 q 0,0.78732 0.0389,1.215 h -0.76788 l -0.0389,-0.81648 h -0.0194 q -0.20412,0.40824 -0.62208,0.67068 -0.41796,0.25272 -0.972,0.25272 -0.86508,0 -1.44828,-0.66096 -0.57348,-0.67068 -0.57348,-1.73016 -0.01,-1.14696 0.60264,-1.83708 0.62208,-0.69012 1.5066,-0.69012 0.51516,0 0.88452,0.20412 0.36936,0.20412 0.5346,0.50544 h 0.0194 z m 0,4.92804 v -0.81648 q 0,-0.21384 -0.0389,-0.36936 -0.0972,-0.41796 -0.4374,-0.69984 -0.33048,-0.28188 -0.79704,-0.28188 -0.65124,0 -1.03032,0.51516 -0.37908,0.50544 -0.37908,1.29276 0,0.75816 0.35964,1.25388 0.36936,0.49572 1.03032,0.49572 0.4374,0 0.78732,-0.27216 0.34992,-0.28188 0.46656,-0.74844 0.0389,-0.15552 0.0389,-0.36936 z"
       id="path46" />
    <path
       d="m 112.25728,44.515008 v 1.75932 q 0,0.6804 0.068,1.12752 h -0.76788 l -0.0778,-0.59292 h -0.0292 q -0.20412,0.30132 -0.5832,0.50544 -0.37908,0.1944 -0.85536,0.1944 -0.6804,0 -1.05948,-0.39852 -0.37908,-0.39852 -0.37908,-0.95256 0,-0.85536 0.729,-1.30248 0.73872,-0.45684 2.09952,-0.44712 v -0.0972 q 0,-0.18468 -0.0389,-0.3402 -0.0292,-0.16524 -0.13608,-0.34992 -0.0972,-0.18468 -0.33048,-0.2916 -0.22356,-0.10692 -0.56376,-0.10692 -0.71928,0 -1.23444,0.34992 l -0.1944,-0.57348 q 0.65124,-0.40824 1.5552,-0.40824 1.7982,0 1.7982,1.92456 z m -0.83592,1.30248 v -0.81648 q -1.9926,-0.03888 -1.9926,1.05948 0,0.39852 0.22356,0.61236 0.23328,0.20412 0.57348,0.20412 0.4374,0 0.73872,-0.22356 0.30132,-0.23328 0.41796,-0.56376 0.0389,-0.11664 0.0389,-0.27216 z"
       id="path48" />
    <path
       d="m 113.62779,47.401848 0.01,-3.23676 q 0,-0.88452 -0.0389,-1.46772 h 0.74844 l 0.0389,0.9234 h 0.0292 q 0.15552,-0.46656 0.51516,-0.74844 0.35964,-0.28188 0.79704,-0.28188 0.11664,0 0.23328,0.02916 v 0.79704 q -0.1944,-0.01944 -0.30132,-0.01944 -0.44712,0 -0.75816,0.30132 -0.30132,0.30132 -0.3888,0.78732 -0.0292,0.1944 -0.0292,0.40824 v 2.50776 z"
       id="path50" />
    <path
       d="m 119.9555,40.500648 h 0.85536 v 5.6862 q 0,0.78732 0.0389,1.215 h -0.76788 l -0.0389,-0.81648 h -0.0194 q -0.20412,0.40824 -0.62208,0.67068 -0.41796,0.25272 -0.972,0.25272 -0.86508,0 -1.44828,-0.66096 -0.57348,-0.67068 -0.57348,-1.73016 -0.01,-1.14696 0.60264,-1.83708 0.62208,-0.69012 1.5066,-0.69012 0.51516,0 0.88452,0.20412 0.36936,0.20412 0.5346,0.50544 h 0.0194 z m 0,4.92804 v -0.81648 q 0,-0.21384 -0.0389,-0.36936 -0.0972,-0.41796 -0.4374,-0.69984 -0.33048,-0.28188 -0.79704,-0.28188 -0.65124,0 -1.03032,0.51516 -0.37908,0.50544 -0.37908,1.29276 0,0.75816 0.35964,1.25388 0.36936,0.49572 1.03032,0.49572 0.4374,0 0.78732,-0.27216 0.34992,-0.28188 0.46656,-0.74844 0.0389,-0.15552 0.0389,-0.36936 z"
       id="path52" />
  </g>
</svg>
