<?xml version="1.0" standalone="no"?>
<!DOCTYPE svg PUBLIC "-//W3C//DTD SVG 20010904//EN"
 "http://www.w3.org/TR/2001/REC-SVG-20010904/DTD/svg10.dtd">
<svg version="1.0" xmlns="http://www.w3.org/2000/svg"
 width="128.000000pt" height="128.000000pt" viewBox="0 0 128.000000 128.000000"
 preserveAspectRatio="xMidYMid meet">

<g transform="translate(0.000000,128.000000) scale(0.100000,-0.100000)"
fill="#000000" stroke="none">
<path d="M902 1223 c-43 -21 -86 -64 -104 -103 -13 -29 -15 -30 -58 -23 -77
14 -224 5 -287 -16 l-58 -20 -23 30 c-30 38 -72 59 -116 59 -82 0 -140 -132
-107 -246 7 -26 4 -39 -20 -77 -66 -107 -93 -256 -65 -364 35 -140 109 -242
229 -317 98 -60 173 -80 312 -80 101 0 116 2 190 33 99 40 137 63 199 121 105
96 167 234 167 365 0 67 1 71 29 87 41 24 67 79 52 112 -18 41 -57 61 -96 49
-32 -10 -33 -9 -82 56 l-50 67 18 54 c30 97 18 178 -33 214 -29 20 -55 20 -97
-1z m89 -20 c12 -16 12 -16 -1 -6 -8 6 -28 13 -45 16 l-30 4 31 2 c20 0 37 -6
45 -16z m-33 -51 c17 -11 31 -64 25 -96 -6 -32 -9 -32 -53 -2 -20 13 -44 25
-54 27 -33 7 -29 26 11 53 40 28 51 30 71 18z m-718 -30 c-23 -11 -43 -32 -57
-62 -13 -24 -23 -39 -23 -32 0 7 9 30 19 51 19 36 50 59 81 60 8 0 -1 -8 -20
-17z m353 -49 c-7 -2 -21 -2 -30 0 -10 3 -4 5 12 5 17 0 24 -2 18 -5z m-83
-13 c-14 -4 -34 -8 -45 -8 -16 0 -15 2 5 8 14 4 34 8 45 8 16 0 15 -2 -5 -8z
m-177 -49 l29 -26 -64 -58 -63 -58 -6 28 c-13 57 -9 100 12 127 25 31 48 28
92 -13z m468 -123 c-92 -13 -157 -51 -203 -118 -9 -14 -17 -19 -17 -12 -1 7
21 35 47 61 55 55 114 80 187 79 l50 0 -64 -10z m408 -82 c16 -19 17 -66 2
-94 -14 -26 -51 -49 -51 -31 0 6 -7 9 -15 5 -18 -6 -59 30 -45 39 6 4 9 14 9
23 -1 15 -2 15 -6 -1 -2 -9 -8 -15 -13 -12 -12 7 -2 35 23 63 24 25 78 30 96
8z m-409 -13 c-8 -3 -25 -10 -38 -14 -13 -5 -20 -14 -16 -20 5 -8 8 -8 14 0 9
15 60 25 60 12 0 -16 -22 -24 -30 -12 -5 9 -10 8 -19 -2 -12 -15 -51 -12 -51
4 0 12 52 38 75 38 14 0 16 -2 5 -6z m-390 -174 c12 -8 10 -10 -9 -5 -14 3
-31 0 -38 -6 -7 -6 -13 -7 -13 -4 0 4 -10 2 -22 -4 -23 -11 -23 -11 1 9 25 23
58 27 81 10z m10 -44 c0 -2 -7 -2 -16 2 -11 4 -22 -1 -30 -12 -16 -21 -19 -39
-6 -31 5 3 4 -10 -2 -29 -6 -19 -14 -35 -18 -35 -11 0 -10 38 1 44 5 3 7 14 5
24 -7 27 26 62 48 51 10 -5 18 -12 18 -14z m490 -10 c0 -8 -82 -45 -99 -45
-23 0 -4 12 47 30 26 10 48 18 50 19 1 0 2 -1 2 -4z m-575 -15 c-3 -5 -12 -10
-18 -10 -7 0 -6 4 3 10 19 12 23 12 15 0z m102 -16 c-3 -3 -12 -4 -19 -1 -8 3
-5 6 6 6 11 1 17 -2 13 -5z m-15 -36 c-4 -19 -32 -26 -32 -8 0 6 5 10 11 10 5
0 8 4 5 8 -3 5 1 9 8 9 8 0 11 -8 8 -19z m-92 -4 c0 -8 -5 -12 -10 -9 -6 4 -8
11 -5 16 9 14 15 11 15 -7z"/>
<path d="M1127 743 c-4 -3 -7 -13 -7 -22 1 -13 3 -13 11 2 11 19 8 33 -4 20z"/>
</g>
</svg>
